<svg id="svg2" version="1.0" xmlns="http://www.w3.org/2000/svg" height="640" width="320"
     viewBox="0 0 320.000000 640.000000" preserveAspectRatio="xMidYMid meet">

<g transform="translate(0.000000,200.000000) scale(0.100000,-0.100000)"
fill="#000000" stroke="none">
<path d="M0 995 l0 -995 615 0 615 0 0 995 0 995 -615 0 -615 0 0 -995z m1190
-5 l0 -960 -575 0 -575 0 0 960 0 960 575 0 575 0 0 -960z"/>
<path d="M60 990 l0 -930 555 0 555 0 0 930 0 930 -555 0 -555 0 0 -930z m401
870 c50 -26 95 -87 108 -151 19 -85 17 -89 -33 -89 l-43 0 -7 49 c-15 116
-108 173 -194 121 -62 -38 -91 -150 -92 -345 0 -248 51 -355 171 -355 88 0
129 58 129 185 l0 75 -65 0 -65 0 0 35 0 35 110 0 110 0 0 -195 0 -195 -35 0
c-28 0 -35 4 -35 20 0 24 -13 26 -30 6 -23 -29 -97 -49 -156 -43 -108 11 -170
76 -205 217 -19 73 -21 103 -17 244 4 129 10 174 27 229 24 75 75 141 126 163
47 21 149 17 196 -6z m537 1 c62 -31 98 -86 109 -166 l6 -45 -41 0 c-39 0 -40
1 -47 41 -10 59 -58 109 -111 116 -82 11 -141 -49 -131 -134 6 -53 31 -83 137
-161 148 -108 196 -169 207 -260 8 -70 -12 -130 -61 -178 -71 -71 -189 -84
-281 -30 -51 30 -95 108 -95 168 0 38 0 38 40 38 35 0 40 -3 40 -22 1 -41 37
-106 69 -122 16 -9 51 -16 76 -16 80 0 125 49 125 135 0 77 -32 118 -183 229
-120 90 -157 147 -157 242 0 44 28 111 56 135 61 52 172 66 242 30z m-558
-945 c56 -21 106 -68 122 -115 31 -93 2 -215 -61 -260 -39 -28 -132 -51 -208
-51 l-63 0 0 -195 0 -195 -45 0 -45 0 0 421 0 422 128 -6 c81 -3 143 -11 172
-21z m650 -16 l0 -40 -155 0 -155 0 0 -140 0 -139 113 -3 112 -3 3 -37 3 -38
-115 0 -116 0 0 -160 0 -160 160 0 160 0 0 -40 0 -40 -205 0 -205 0 0 420 0
420 200 0 200 0 0 -40z"/>
<path d="M232 713 l3 -148 70 1 c124 3 185 49 185 142 0 104 -58 151 -188 152
l-73 0 3 -147z"/>
</g>
</svg>
